<svg width="231" height="239" viewBox="0 0 231 239" fill="none" xmlns="http://www.w3.org/2000/svg">
<path d="M115.059 238.118C178.605 238.118 230.118 186.605 230.118 123.059C230.118 59.5138 178.605 8 115.059 8C51.5138 8 0 59.5138 0 123.059C0 186.605 51.5138 238.118 115.059 238.118Z" fill="#EAA055"/>
<path d="M115.059 230.118C178.605 230.118 230.118 178.605 230.118 115.059C230.118 51.5138 178.605 0 115.059 0C51.5138 0 0 51.5138 0 115.059C0 178.605 51.5138 230.118 115.059 230.118Z" fill="#F8B26A"/>
<path d="M115.059 208.545C166.69 208.545 208.545 166.69 208.545 115.059C208.545 63.4285 166.69 21.5735 115.059 21.5735C63.4285 21.5735 21.5736 63.4285 21.5736 115.059C21.5736 166.69 63.4285 208.545 115.059 208.545Z" fill="#F5E6C8"/>
<path fill-rule="evenodd" clip-rule="evenodd" d="M110.091 54.7028C112.207 55.1757 114.184 52.7883 116.545 52.7276C119.745 52.6454 123.652 54.4991 129.578 51.7122C130.891 51.0938 133.314 50.3961 134.81 51.9046C135.914 53.0167 137.065 53.616 138.204 53.1237C141.023 51.9043 143.797 55.6911 145.497 56.1949C146.379 56.4566 147.297 57.4444 148.221 58.0859C149.513 58.9835 150.818 60.9402 152.057 62.1113C153.438 63.4144 154.501 64.1868 155.398 64.7761C157.024 66.6088 155.2 67.0703 153.996 69.3064C152.662 70.6162 151.349 72.2294 149.864 75.2225L151.803 88.0434L154.684 97.6855L152.627 101.024L162.912 115.49C163.192 117.524 162.847 119.142 161.265 119.94L154.684 121.791C154.029 126.774 155.295 128.15 156.331 129.954L153.86 131.804L156.331 135.143L153.45 136.997L155.507 144.046C155.911 146.574 154.433 148.148 153.533 149.435C151.378 152.082 150.475 151.976 147.27 152.173C140.672 152.53 136.534 151.354 129.466 148.822C127.187 152.229 124.16 154.139 124.21 162.201C118.558 168.11 119.665 171.154 118.936 178.654C115.834 179.11 116.138 181.704 95.6554 160.996C85.4463 150.679 73.6817 144.331 68.1833 149.698C71.7625 139.404 77.6909 135.455 78.0692 124.363L75.435 120.082C75.435 120.082 72.9672 116.215 72.8704 115.361L70.7474 108.81L68 87.2654C68.594 73.7025 77.5527 66.2092 83.9435 61.3666C88.8729 57.3153 95.0076 55.6653 101.524 54.4981C104.33 53.9953 107.208 54.6855 110.091 54.7029L110.091 54.7028Z" fill="#F8B26A"/>
<path opacity="0.6" d="M115.4 0C115.602 0 115.801 0.0148753 116 0.0148753V237.985C115.801 237.985 115.602 238 115.4 238C51.6674 238 0 184.721 0 119C0 53.2793 51.6674 0 115.4 0V0Z" fill="#F5E169"/>
</svg>
