<svg version="1.1" id="Layer_1" xmlns="http://www.w3.org/2000/svg" xmlns:xlink="http://www.w3.org/1999/xlink" x="0px" y="0px"
	 width="100%" viewBox="0 0 1024 1024" enable-background="new 0 0 1024 1024" xml:space="preserve">
<path fill="#000000" opacity="1.000000" stroke="none" 
	d="
M1.000000,842.000000 
	C1.000000,700.640808 1.000000,559.281677 1.167836,417.713165 
	C1.877753,418.463196 1.691325,419.864105 3.373777,420.470703 
	C5.586567,415.946381 8.873211,413.115631 14.339143,415.059662 
	C19.849760,417.019562 21.603600,416.438751 23.947311,410.939758 
	C26.558983,404.812164 28.433657,398.422089 30.371334,392.036194 
	C35.908348,373.788239 37.163746,354.721649 41.579651,336.234924 
	C45.683983,319.052612 46.982143,301.361572 44.875454,283.620270 
	C44.384804,279.488281 43.600231,275.333099 38.826584,274.326477 
	C33.480030,273.199066 31.163927,269.659332 29.535261,264.972565 
	C24.752541,251.209503 34.031563,232.923828 46.638699,224.873627 
	C52.929077,220.856934 59.198544,216.962997 64.860802,212.117233 
	C68.768677,208.772888 73.183380,205.819244 76.386818,201.888443 
	C89.656540,185.605743 100.078461,167.297989 112.395363,150.326385 
	C118.943970,141.303009 125.431618,132.245148 132.538177,123.621399 
	C144.702774,108.859802 157.216858,94.366226 167.452881,78.082664 
	C170.223389,73.675285 172.912109,68.862915 177.467743,65.803749 
	C184.095703,61.353004 190.746826,57.001190 196.679703,51.553696 
	C209.791153,39.514889 226.100555,32.164780 240.625320,22.179968 
	C244.210922,19.715109 247.732300,5.054917 245.392029,1.305916 
	C245.309586,1.173834 245.132812,1.100640 245.000000,1.000000 
	C432.692505,1.000000 620.385010,1.000000 808.385437,1.228993 
	C807.312195,4.802041 809.957947,7.417438 810.372131,10.464279 
	C811.258301,16.982729 814.223511,22.193974 820.163574,25.812380 
	C824.404053,28.395498 828.398987,31.419353 832.728577,33.911495 
	C838.247375,37.088165 843.221130,40.945358 847.370911,45.823715 
	C855.465942,55.340015 862.535645,65.579185 869.598328,75.883476 
	C885.151611,98.575630 905.006470,117.293083 926.513062,134.207428 
	C942.051025,146.427628 957.245789,159.026077 970.665710,173.517776 
	C978.385681,181.854294 986.354919,189.786011 995.285156,196.773270 
	C1001.201233,201.402298 1007.107239,206.071472 1015.096191,206.442444 
	C1018.399597,206.595840 1021.736267,206.139847 1025.000000,207.000000 
	C1025.000000,424.692505 1025.000000,642.385010 1024.696045,860.476807 
	C1023.007507,860.553223 1021.712952,860.891785 1020.568115,861.615295 
	C1013.138855,866.310120 1005.632446,870.936096 1000.753052,878.595337 
	C998.892029,881.516541 996.789795,882.320068 993.742737,880.126831 
	C985.281677,874.036804 982.561035,874.361938 975.657349,881.888245 
	C964.758301,893.770447 953.800354,905.598755 942.940186,917.516296 
	C938.823914,922.033386 935.688660,927.028137 936.038269,933.558167 
	C936.237305,937.275330 934.267944,939.115784 930.607666,940.091370 
	C920.985840,942.655945 912.427551,946.924316 906.049133,955.147400 
	C902.300476,959.980286 898.579102,964.881714 894.271667,969.324341 
	C887.871948,975.924744 879.956665,981.444031 877.435364,991.107422 
	C877.209045,991.974670 876.308289,992.779541 875.536011,993.372803 
	C869.887939,997.711670 864.260010,1002.060425 858.749939,1006.586731 
	C854.514160,1010.066162 851.405151,1014.196655 848.320251,1018.484436 
	C846.891113,1020.470947 846.460205,1022.748413 848.000000,1025.000000 
	C619.974182,1025.000000 391.948334,1025.000000 163.460876,1024.723999 
	C161.749359,1020.595032 159.486969,1017.458618 156.839417,1014.372742 
	C151.505417,1008.155640 143.959198,1005.654663 137.195663,1001.846863 
	C131.302933,998.529297 126.768631,994.445190 125.353287,987.327820 
	C124.506989,983.071960 121.955086,979.376282 118.624023,976.438904 
	C101.893471,961.685364 91.737259,942.347046 81.201729,923.222351 
	C74.610817,911.258179 71.155670,897.281006 59.336540,888.563110 
	C58.221458,887.740662 57.746365,886.059692 56.952782,884.790710 
	C52.507236,877.682007 47.153534,870.968140 40.587692,866.151794 
	C32.798168,860.437805 26.287952,854.446838 23.072058,845.168518 
	C21.563480,840.816101 18.021526,839.269226 13.498782,839.715576 
	C10.377973,840.023621 7.277603,840.911987 4.092515,839.964050 
	C2.417042,839.465332 1.872391,841.070129 1.000000,842.000000 
M924.588013,402.909515 
	C923.588806,399.266174 922.722229,395.580078 921.564331,391.987915 
	C918.677551,383.032623 915.654968,374.121124 912.693787,365.189789 
	C911.716980,362.243774 909.147278,360.916840 906.589050,360.930847 
	C904.127075,360.944275 904.339478,363.824646 903.948181,365.704407 
	C903.541443,367.658630 903.695251,369.817413 902.920837,371.587982 
	C901.521545,374.787323 902.158508,380.314606 898.375427,380.660004 
	C895.068970,380.961884 894.790894,375.688232 893.695374,372.728546 
	C877.334106,328.523895 854.073669,288.313416 823.422485,252.535507 
	C773.656677,194.445892 712.314880,153.583435 639.495056,129.944931 
	C617.578857,122.830566 595.167053,118.050529 572.476135,114.372543 
	C570.459839,114.045715 568.345642,113.709099 567.898560,111.252434 
	C567.482361,108.965561 568.960205,107.434021 570.655579,106.310966 
	C572.307739,105.216576 574.132446,104.356300 575.947815,103.540993 
	C578.528870,102.381737 581.205017,101.431709 583.771851,100.243935 
	C585.023682,99.664650 585.924561,98.712379 585.386475,97.040215 
	C584.887329,95.489151 583.791382,95.931976 582.625366,95.772751 
	C578.624817,95.226433 574.666687,93.790100 570.692322,93.789528 
	C566.531128,93.788925 562.624939,92.449745 558.439636,92.572411 
	C551.785034,92.767441 544.900513,93.078316 538.505432,91.620262 
	C533.489075,90.476562 528.641479,90.176956 523.753967,90.538834 
	C517.083069,91.032776 510.324554,91.647858 503.798859,90.735672 
	C493.624237,89.313408 483.707275,92.387085 473.638550,91.433456 
	C472.710022,91.345520 471.735748,91.921890 470.764557,92.072708 
	C466.013916,92.810425 461.277924,93.743523 456.497742,94.166725 
	C448.856842,94.843163 441.383636,96.275475 433.861725,97.728592 
	C428.109222,98.839905 423.115234,101.774536 417.359467,102.910103 
	C412.151245,103.937637 405.974396,102.437729 401.099274,107.992950 
	C409.405609,110.176224 416.895447,113.387688 425.193939,119.149605 
	C385.536713,129.032791 348.452423,141.744629 313.718292,160.853027 
	C278.938873,179.986328 248.461929,204.713455 219.398544,231.515808 
	C221.282654,226.367920 224.738052,222.600174 228.054352,218.708527 
	C236.440735,208.867233 247.213074,201.805420 256.861938,193.438782 
	C266.988495,184.657974 277.904266,177.101410 288.910034,169.673889 
	C297.142609,164.117905 305.593292,158.786911 314.440826,154.128464 
	C322.349396,149.964432 330.932129,146.865906 337.504211,140.384109 
	C338.512421,139.389771 340.084869,138.622696 341.489685,138.429657 
	C353.213440,136.818878 360.265137,127.558578 369.305603,121.579292 
	C370.721039,120.643135 371.866821,118.992989 370.665619,117.298912 
	C369.705780,115.945198 368.624603,115.376175 366.212982,115.861008 
	C352.578033,118.602196 340.349182,124.901222 327.882080,130.476624 
	C314.073730,136.651840 301.092041,144.453369 288.087494,152.212494 
	C263.916840,166.633835 241.813171,183.800598 221.267960,202.845825 
	C209.140350,214.088013 197.684036,226.127518 186.932220,238.828018 
	C170.153900,258.647308 155.285965,279.772217 142.318314,302.186005 
	C122.467293,336.497192 108.370567,373.120422 99.331482,411.754395 
	C91.745369,444.178223 88.141380,477.032867 87.413841,510.248535 
	C87.126869,523.350159 88.309769,536.392334 89.301094,549.456543 
	C90.137245,560.475830 91.333221,571.427856 93.104836,582.303894 
	C95.680565,598.116455 98.996735,613.784424 103.388145,629.216980 
	C108.148132,645.944824 112.019905,662.959839 117.523018,679.434082 
	C126.926796,707.585205 140.873169,733.641052 156.794052,758.629883 
	C169.072540,777.901794 182.706512,796.248291 198.274734,812.916199 
	C205.067978,820.189209 211.652634,827.772827 219.418686,834.349792 
	C227.790283,841.439636 236.023254,848.767700 244.357986,855.961304 
	C254.842896,865.010681 265.850128,873.325684 277.176331,881.199036 
	C296.135040,894.378113 316.179260,905.807495 337.074493,915.606812 
	C361.009064,926.831665 385.848358,935.654724 411.663788,941.534790 
	C425.719757,944.736328 439.766541,947.975647 454.131927,949.652161 
	C460.674469,950.415710 467.191864,951.139343 473.765778,951.664307 
	C484.131531,952.492065 494.430298,954.268860 504.872162,953.391541 
	C512.203674,952.775452 519.558411,952.558960 526.843323,953.257568 
	C539.471680,954.468506 551.876648,952.131592 564.338379,951.205811 
	C574.185486,950.474243 583.984558,948.523438 593.766052,946.748718 
	C627.266785,940.670593 659.321106,930.134277 689.992554,915.591553 
	C711.018799,905.621948 731.020081,893.720398 750.240662,880.515198 
	C777.256409,861.954529 802.530396,841.512085 824.305664,816.790161 
	C833.408447,806.455505 842.478577,796.180908 850.821045,785.200562 
	C866.229309,764.920166 879.651245,743.434265 891.570923,720.967468 
	C893.007935,718.259094 894.444763,715.532104 897.138794,713.222961 
	C897.378418,714.243713 897.706848,714.794678 897.561768,715.155212 
	C895.948853,719.164062 895.550720,723.567993 893.440918,727.422485 
	C891.159912,731.589539 893.556274,735.227905 895.280884,738.700317 
	C896.753723,741.665833 899.547852,740.230469 901.976807,739.792725 
	C905.210022,739.209961 907.208923,741.426147 909.271362,743.379639 
	C914.951111,748.759888 917.990967,748.873840 923.823303,743.728271 
	C932.275330,736.271423 939.197693,727.689941 944.221436,717.475220 
	C955.307312,694.934631 961.424011,670.970825 964.873840,646.281189 
	C966.881714,631.911072 965.451477,617.225464 967.284546,602.891479 
	C971.157776,572.603394 964.191284,543.544556 958.915833,514.237122 
	C958.042053,509.382904 954.569885,506.829437 950.302856,505.394867 
	C946.180481,504.008850 939.456482,497.049133 938.950623,492.941193 
	C937.433472,480.621216 936.334656,468.258209 934.756348,455.937653 
	C932.490417,438.249969 928.909790,420.865082 924.588013,402.909515 
z"/>
<path fill="#000000" opacity="1.000000" stroke="none" 
	d="
M1.000000,249.468658 
	C2.874693,255.514862 1.566005,262.241455 2.319573,268.830597 
	C2.599391,271.277313 2.897470,273.721954 3.343719,277.488403 
	C4.073502,273.293579 4.573991,270.416718 5.238098,266.599396 
	C7.208157,269.247314 7.353579,271.554047 7.746356,273.691315 
	C8.265522,276.516296 9.027651,279.169159 10.827554,281.481934 
	C12.659522,283.835938 12.763180,286.674805 13.042259,289.518097 
	C14.231149,301.630463 10.618557,312.904114 6.988731,324.135376 
	C5.709629,328.093140 1.035800,330.476807 1.179584,335.668884 
	C1.000000,307.312439 1.000000,278.624878 1.000000,249.468658 
z"/>
<path fill="#000000" opacity="1.000000" stroke="none" 
	d="
M528.924805,589.811584 
	C543.039307,586.369019 554.118652,578.742554 563.952454,568.861755 
	C606.850281,525.758667 649.826294,482.733490 692.788574,439.694580 
	C697.743042,434.731293 697.785339,434.773529 702.871399,439.846619 
	C717.737854,454.675079 732.610779,469.497101 747.459534,484.343262 
	C748.733582,485.617065 750.324341,486.664886 750.925476,488.605133 
	C749.836426,491.100128 747.676697,492.757385 745.820618,494.621552 
	C703.728088,536.897949 661.587891,579.127075 619.500000,621.408142 
	C599.636108,641.363220 577.125427,656.929138 549.318481,663.544739 
	C498.438965,675.649719 452.924408,665.537598 415.052338,628.683228 
	C374.926880,589.636047 335.694489,549.671143 296.070648,510.108368 
	C290.174286,504.221130 284.359955,498.247467 278.329163,492.501160 
	C275.631042,489.930298 275.166595,488.076965 278.100525,485.192474 
	C294.022034,469.539154 309.848297,453.786591 325.518616,437.882202 
	C328.687744,434.665710 330.436218,436.181000 332.798767,438.544037 
	C359.426025,465.176727 386.118866,491.743835 412.755493,518.367188 
	C429.845062,535.448181 446.882385,552.581482 463.920898,569.713379 
	C478.619385,584.492493 496.081787,592.573792 517.207886,591.570068 
	C520.997803,591.389954 524.753052,590.480103 528.924805,589.811584 
z"/>
<path fill="#000000" opacity="1.000000" stroke="none" 
	d="
M233.008484,802.981201 
	C287.067780,852.795654 349.280975,886.576111 420.719940,902.993835 
	C443.449463,908.217407 466.430817,911.724915 489.762939,912.768250 
	C494.255676,912.969177 498.769287,913.519104 502.913910,915.421021 
	C507.388794,917.474548 507.835052,920.393127 504.447479,924.036316 
	C501.989075,926.680237 498.896881,928.275330 495.491180,929.274902 
	C480.518250,933.669617 465.506622,933.294739 450.660156,928.935486 
	C438.947388,925.496338 427.354950,921.836731 414.899902,923.788330 
	C414.253906,923.889526 413.482117,923.954651 412.918671,923.702271 
	C401.942535,918.785522 389.400696,919.680664 378.505157,914.391113 
	C376.306030,913.323364 373.761627,912.702576 371.318085,912.457825 
	C366.265472,911.951782 361.524750,910.935364 357.276398,907.879211 
	C354.346527,905.771484 350.979004,905.074341 347.309357,906.164062 
	C343.613922,907.261414 340.272278,906.559570 336.883606,904.417603 
	C332.575104,901.694092 326.957092,901.523743 323.113464,897.666321 
	C319.491425,894.031433 315.959198,890.468384 310.005585,890.863281 
	C307.755371,891.012512 306.351868,888.272034 304.704376,886.620361 
	C298.480225,880.380493 294.130371,872.454712 286.926025,867.091858 
	C282.592560,863.866089 278.032135,861.245300 272.669037,860.178711 
	C268.249268,859.299744 264.641113,856.694458 261.559814,853.737671 
	C254.016769,846.499268 247.092834,838.651978 237.964523,833.161682 
	C233.885757,830.708496 232.029388,826.322937 232.253357,821.539795 
	C232.628448,813.528809 228.355774,808.804993 221.685547,805.606750 
	C218.787079,804.216980 216.032120,802.773254 214.771301,799.509949 
	C210.785629,789.194031 202.062546,782.577881 195.082901,774.628174 
	C191.140823,770.138245 186.547882,766.225342 182.353836,761.948792 
	C179.719681,759.262878 177.925140,755.909058 177.584244,752.223083 
	C177.051941,746.467896 174.490509,741.534058 171.235947,737.218323 
	C166.263474,730.624512 163.384354,722.892517 158.848053,716.182007 
	C154.790390,710.179504 151.665039,703.937744 149.330887,697.162292 
	C148.645950,695.174072 147.694733,693.315918 148.249176,690.909546 
	C170.062302,733.055054 198.014389,770.471680 233.008484,802.981201 
z"/>
<path fill="#000000" opacity="1.000000" stroke="none" 
	d="
M488.802124,465.197937 
	C478.897614,455.292938 469.320831,445.558136 459.542725,436.029938 
	C456.349121,432.917908 456.198090,430.681610 459.500092,427.428925 
	C476.225372,410.953369 492.803040,394.326721 509.310333,377.632263 
	C511.992218,374.919922 513.753296,374.701538 516.565308,377.547577 
	C533.300354,394.485291 550.174194,411.286530 567.086121,428.048126 
	C569.460571,430.401428 570.489380,432.275513 567.695679,435.058502 
	C550.474426,452.213776 533.311523,469.427704 516.180542,486.673126 
	C513.781067,489.088593 511.976685,488.401306 509.892090,486.288269 
	C502.992706,479.294861 496.005219,472.388336 488.802124,465.197937 
z"/>
<path fill="#000000" opacity="1.000000" stroke="none" 
	d="
M613.360840,190.470245 
	C614.685364,187.547821 615.911926,184.995850 616.995300,182.384460 
	C618.483093,178.798309 620.923096,177.678467 624.559082,179.132446 
	C633.362061,182.652649 642.343140,185.780762 650.950745,189.725296 
	C669.195374,198.086121 679.353149,217.741699 676.104126,237.457916 
	C672.457947,259.584442 656.531067,276.581787 636.815186,279.161316 
	C629.766602,280.083496 622.888916,279.006805 616.272217,276.353394 
	C607.163086,272.700562 598.101868,268.917206 588.907227,265.493073 
	C584.388794,263.810364 583.556274,261.378876 585.380798,257.077789 
	C594.735840,235.024841 603.941284,212.908432 613.360840,190.470245 
M627.716370,257.642853 
	C640.576294,257.558380 650.581360,248.214066 653.429688,233.627731 
	C655.906128,220.945343 650.449524,211.586990 637.959167,206.399139 
	C634.211609,204.842621 632.295837,205.449249 630.760010,209.290146 
	C626.503174,219.935852 621.958069,230.466446 617.512451,241.036469 
	C612.018677,254.098618 612.450806,254.873489 627.716370,257.642853 
z"/>
<path fill="#000000" opacity="1.000000" stroke="none" 
	d="
M295.982697,254.078217 
	C298.901611,258.367920 301.724426,262.292419 304.292236,266.377258 
	C306.091248,269.239197 307.953583,269.744019 310.820435,267.803680 
	C317.023438,263.605377 323.294678,259.499359 329.664032,255.559311 
	C332.520630,253.792221 332.624115,252.088776 330.784790,249.508072 
	C325.374542,241.917068 320.196350,234.159866 314.739685,226.603195 
	C312.117126,222.971329 312.383514,220.411484 316.378387,218.096909 
	C319.828217,216.098160 323.012268,213.646317 326.397675,211.528854 
	C329.073730,209.855072 331.378418,210.322647 333.287231,213.000443 
	C349.232025,235.368835 365.179474,257.735565 381.213928,280.039612 
	C383.922485,283.807251 383.182434,286.253052 379.261841,288.401520 
	C376.057220,290.157654 372.923065,292.101440 369.985321,294.270416 
	C366.309326,296.984375 363.766174,296.148956 361.322327,292.564087 
	C356.822174,285.962738 351.976593,279.594910 347.545288,272.949524 
	C345.530334,269.927795 343.721405,269.396454 340.668701,271.474213 
	C334.754333,275.499725 328.741241,279.397217 322.602875,283.069977 
	C319.084290,285.175232 319.146271,287.266815 321.290375,290.343781 
	C326.143341,297.308228 330.641479,304.521729 335.555023,311.441437 
	C338.298492,315.305023 337.906311,318.000153 333.834167,320.420807 
	C331.410553,321.861511 329.195892,323.655304 326.897003,325.303864 
	C320.983612,329.544464 320.050446,329.573029 315.792572,323.450378 
	C300.395264,301.309692 285.192322,279.033844 269.805267,256.885956 
	C267.354645,253.358536 267.625885,250.971054 271.403961,248.812729 
	C275.159576,246.667236 278.830719,244.357880 282.421967,241.946198 
	C284.936096,240.257858 286.803375,240.906555 288.377686,243.115891 
	C290.888580,246.639587 293.315338,250.223206 295.982697,254.078217 
z"/>
<path fill="#000000" opacity="1.000000" stroke="none" 
	d="
M480.645020,256.937683 
	C475.513611,255.232285 476.619812,251.925354 477.933838,248.701630 
	C485.342529,230.525452 492.805634,212.371460 500.239716,194.205627 
	C503.704834,185.738327 507.282623,177.313171 510.534760,168.764450 
	C511.927338,165.103806 514.081238,163.343384 517.992798,163.657181 
	C522.964355,164.056000 527.944946,164.342545 532.918579,164.717712 
	C536.076782,164.955933 536.731934,167.503220 537.555969,169.877716 
	C545.458923,192.649689 553.371277,215.418411 561.264648,238.193680 
	C563.060669,243.375687 564.741943,248.597809 566.573853,253.766815 
	C567.925598,257.581024 566.200867,259.055328 562.646545,259.267639 
	C561.651611,259.327026 560.649658,259.281281 559.651184,259.264099 
	C544.926941,259.010529 544.827942,259.044373 539.976501,245.166016 
	C538.753174,241.666611 537.047180,240.029327 533.178284,240.152344 
	C525.195312,240.406158 517.198181,240.364044 509.210144,240.236053 
	C505.972015,240.184174 504.038269,241.255569 502.671722,244.335770 
	C496.718719,257.753632 496.639801,257.719086 482.067505,257.149689 
	C481.735809,257.136719 481.405853,257.077850 480.645020,256.937683 
M515.875183,210.208313 
	C514.902039,212.970001 513.143005,215.496704 513.115295,219.155930 
	C518.343445,220.076416 523.438843,219.752579 528.501404,219.399872 
	C529.946899,219.299179 530.898376,217.884262 530.457092,216.419250 
	C528.256775,209.114716 525.915833,201.852539 523.362061,193.742508 
	C522.300781,195.326187 521.950928,195.704849 521.762634,196.151611 
	C519.888306,200.598282 518.040649,205.056168 515.875183,210.208313 
z"/>
<path fill="#000000" opacity="1.000000" stroke="none" 
	d="
M426.177612,825.541626 
	C423.603973,829.617249 421.177582,833.398804 418.852844,837.241821 
	C417.350800,839.724854 415.449097,840.600586 412.564850,839.688904 
	C409.560577,838.739258 406.457306,838.096497 403.386444,837.365173 
	C397.104065,835.869080 396.304504,834.275024 399.675812,828.883667 
	C408.587097,814.632812 417.607086,800.449890 426.601227,786.251038 
	C432.745544,776.551086 439.061401,766.955933 445.009155,757.137390 
	C447.361481,753.254089 450.109863,752.084290 454.493530,753.019470 
	C473.124329,756.994080 468.766815,755.123840 471.333466,771.911804 
	C474.317291,791.428650 477.007111,810.990356 479.833008,830.531372 
	C480.592773,835.785522 481.496338,841.021729 482.124542,846.291199 
	C482.645599,850.661926 480.613708,852.482239 476.286163,851.867126 
	C475.958252,851.820496 475.643066,851.687134 475.315430,851.634888 
	C460.973083,849.352112 460.933197,849.359131 458.692291,835.463928 
	C458.317078,833.137146 457.684906,831.160034 455.220551,830.550110 
	C446.676605,828.435608 438.113190,826.398987 429.546844,824.376648 
	C428.389984,824.103455 427.209351,824.204529 426.177612,825.541626 
M454.626678,809.611267 
	C456.766479,804.361023 454.455017,799.237122 453.929199,794.119263 
	C453.606110,790.974243 454.902893,787.161072 451.835754,784.409180 
	C448.239838,788.448486 439.995697,802.196594 438.861053,806.198792 
	C443.701721,808.168762 448.733215,809.450989 454.626678,809.611267 
z"/>
<path fill="#000000" opacity="1.000000" stroke="none" 
	d="
M409.797058,205.477295 
	C412.513519,215.631790 412.512207,215.627380 422.325836,212.720840 
	C426.630676,211.445847 430.932251,210.158264 435.253540,208.941040 
	C438.682861,207.975052 441.003448,208.997391 442.134460,212.625244 
	C446.947083,228.062225 447.921021,226.263123 433.345764,230.492294 
	C429.832825,231.511612 426.331879,232.573639 422.837891,233.656235 
	C420.242218,234.460464 419.248260,235.818085 419.909424,238.870697 
	C422.721619,251.854752 422.604340,251.874329 435.089600,248.105774 
	C440.024170,246.616318 444.955231,245.112701 449.911896,243.699768 
	C453.339905,242.722595 455.474640,243.655670 456.600311,247.466660 
	C461.513275,264.099091 461.166351,260.395599 447.561279,264.913574 
	C436.199005,268.686768 424.690674,272.020111 413.328156,275.792755 
	C409.047791,277.213928 406.684998,276.797424 405.254913,271.883820 
	C397.588562,245.543365 389.601868,219.296295 381.798828,192.995300 
	C379.981445,186.869629 380.305969,186.372314 386.434418,184.535751 
	C399.973083,180.478485 413.563324,176.590469 427.069489,172.428833 
	C431.292786,171.127548 433.682159,171.968414 434.813660,176.466644 
	C438.545654,191.303207 440.051239,189.462479 425.675385,193.656204 
	C421.845154,194.773560 418.102570,196.288116 414.209076,197.067657 
	C409.277618,198.055008 407.729431,200.480011 409.797058,205.477295 
z"/>
<path fill="#000000" opacity="1.000000" stroke="none" 
	d="
M694.551270,324.552490 
	C686.021545,318.179626 680.399841,310.111450 676.587402,300.618744 
	C674.864746,296.329498 675.622559,293.387268 679.825684,291.113800 
	C691.561401,284.765930 690.167542,284.564026 695.722717,295.706726 
	C698.035034,300.344879 700.870056,304.674530 704.975281,307.993011 
	C708.187866,310.589905 711.706055,311.894958 715.521362,309.438660 
	C719.455750,306.905701 719.376038,302.948090 718.142395,299.162354 
	C716.754639,294.903656 714.808960,290.824921 713.071167,286.682495 
	C710.817322,281.309906 708.254700,275.988220 707.720398,270.119751 
	C706.121338,252.556519 723.056030,237.793793 740.353271,242.138260 
	C754.838196,245.776367 764.819519,255.060806 770.392334,269.022675 
	C772.048767,273.172485 771.288208,276.139923 766.978638,277.872009 
	C766.516846,278.057587 766.079529,278.307587 765.640198,278.545013 
	C755.296814,284.136414 755.957642,282.493317 752.779297,274.445953 
	C750.975586,269.879059 748.002686,266.035828 743.561401,263.615112 
	C740.428223,261.907379 737.185303,261.416229 734.237183,263.917877 
	C731.268005,266.437317 731.232117,269.585785 732.683533,272.987946 
	C735.880615,280.482178 740.050476,287.551788 742.378906,295.426605 
	C745.274231,305.218750 743.629272,314.247650 737.563538,322.339569 
	C729.436768,333.180786 716.488647,335.825958 703.039429,329.524475 
	C700.188782,328.188843 697.564148,326.370758 694.551270,324.552490 
z"/>
<path fill="#000000" opacity="1.000000" stroke="none" 
	d="
M688.571411,752.961914 
	C710.217407,763.633789 711.899658,790.170654 692.096985,804.424927 
	C682.630859,811.238831 671.896362,813.473145 660.375977,812.321899 
	C658.817871,812.166260 657.432129,811.667725 656.391113,810.505981 
	C654.553833,808.455688 654.295898,796.162109 655.939636,794.009277 
	C657.152527,792.420593 658.870972,792.691467 660.502075,792.619446 
	C665.299072,792.407410 670.138672,793.239014 674.888855,791.778320 
	C677.174072,791.075562 679.280457,790.152405 680.905334,788.412354 
	C682.915649,786.259399 684.223999,783.838318 683.211914,780.718323 
	C682.169189,777.503845 679.887085,775.588501 676.655945,775.421814 
	C671.848267,775.173828 667.015991,775.440979 662.194885,775.402710 
	C657.214783,775.363220 652.201050,775.894531 647.271790,774.774231 
	C627.265869,770.227417 619.323547,748.092529 631.966736,731.875793 
	C640.066101,721.487122 651.162964,716.844421 664.025757,716.036499 
	C667.829224,715.797485 670.548584,717.253662 670.478455,721.711853 
	C670.465637,722.521484 670.825256,723.332458 670.973206,724.150024 
	C672.454834,732.338074 671.713135,733.370605 663.524658,734.709839 
	C659.068970,735.438660 654.671204,736.354004 651.039062,739.322021 
	C647.916199,741.873840 646.418579,745.198242 647.631897,749.058838 
	C648.832886,752.880249 652.403870,752.754822 655.580750,752.579407 
	C660.221069,752.323059 664.895203,752.105225 669.468567,751.348755 
	C675.889404,750.286621 682.046326,751.208740 688.571411,752.961914 
z"/>
<path fill="#000000" opacity="1.000000" stroke="none" 
	d="
M596.449463,926.559570 
	C587.365356,926.113708 579.322205,929.497681 570.904053,930.419434 
	C561.198669,931.482178 551.617188,931.212219 542.292786,927.913757 
	C538.969971,926.738342 535.506165,926.315857 532.012939,925.974915 
	C529.567322,925.736267 527.346069,924.708069 526.731201,922.106689 
	C526.089172,919.390137 528.146606,918.030212 530.003906,916.484436 
	C535.947510,911.538269 543.289917,912.493103 550.083679,911.888733 
	C586.425049,908.655762 621.589111,900.451355 655.801819,887.911804 
	C670.509460,882.521240 684.824219,876.236328 698.929382,869.447693 
	C700.386169,868.746521 701.784241,867.636902 704.056763,868.354004 
	C703.251770,874.273193 701.500916,879.496216 695.420532,882.128845 
	C692.977295,883.186829 690.554138,884.470215 687.986572,885.023804 
	C683.013367,886.096008 680.280273,889.171326 678.662842,893.739624 
	C678.181030,895.100281 677.388306,896.808350 676.242737,897.402710 
	C668.238892,901.555481 661.539001,908.893127 651.674438,908.615967 
	C641.960388,908.343079 633.609985,912.692383 626.075867,917.376648 
	C616.872070,923.098816 607.191589,925.295532 596.449463,926.559570 
z"/>
<path fill="#000000" opacity="1.000000" stroke="none" 
	d="
M403.622742,738.314941 
	C411.600922,742.396057 411.825867,743.051575 408.088013,750.652161 
	C407.573914,751.697510 407.020966,752.723755 406.493073,753.762451 
	C403.755310,759.149414 402.587524,759.549438 397.189545,756.909058 
	C395.394958,756.031189 393.616791,755.119812 391.829529,754.226868 
	C385.163483,750.896790 385.099457,750.861023 381.295929,757.534485 
	C371.900055,774.019775 362.577209,790.546692 353.206268,807.046265 
	C349.729279,813.168274 349.300507,813.283020 343.217987,810.062744 
	C340.128387,808.426941 337.104584,806.658569 333.962402,805.132568 
	C330.274170,803.341370 330.493866,800.927124 332.208954,797.794189 
	C339.083618,785.236206 345.841797,772.614441 352.650208,760.020142 
	C355.579376,754.601685 358.429413,749.137085 361.501709,743.800659 
	C363.289856,740.694763 362.978607,738.661072 359.534760,737.094910 
	C356.054810,735.512390 352.722260,733.601379 349.350983,731.786255 
	C347.863007,730.985168 346.510101,730.022583 346.345276,728.096008 
	C346.156555,725.889954 351.885803,715.219116 353.807495,714.273010 
	C356.168823,713.110474 357.978333,714.661377 359.838531,715.620667 
	C374.337738,723.097839 388.811859,730.623657 403.622742,738.314941 
z"/>
<path fill="#000000" opacity="1.000000" stroke="none" 
	d="
M569.406982,781.397339 
	C567.631653,774.573242 566.123047,768.099487 564.275940,761.723816 
	C563.194275,757.990234 564.566772,755.890625 567.952515,754.875305 
	C571.763977,753.732300 575.627136,752.742188 579.504272,751.843079 
	C583.403259,750.938843 585.594971,752.317078 586.654114,756.492981 
	C591.387695,775.156677 596.388367,793.752563 601.306824,812.369263 
	C603.112610,819.204590 603.132751,819.209656 610.143066,817.536621 
	C614.827271,816.418701 619.537903,815.390564 624.173218,814.095154 
	C628.137146,812.987427 630.052917,814.605225 631.125244,818.283691 
	C634.893494,831.210571 634.477966,832.011414 621.448425,835.179443 
	C611.441162,837.612732 601.376526,839.831909 591.440796,842.527527 
	C586.742981,843.802063 584.747986,842.295959 583.645020,837.812012 
	C579.045410,819.111816 574.253174,800.458984 569.406982,781.397339 
z"/>
<path fill="#000000" opacity="1.000000" stroke="none" 
	d="
M541.852051,794.406128 
	C542.422791,811.822021 542.874390,828.774231 543.457825,845.721863 
	C543.565552,848.850037 542.216492,850.309753 539.315063,850.833130 
	C534.358337,851.727173 529.367615,851.471191 524.389282,851.298950 
	C521.330750,851.193054 520.763794,848.940857 520.660889,846.391846 
	C520.010254,830.281921 519.295715,814.174561 518.676147,798.063477 
	C518.260986,787.267700 518.059021,776.463196 517.570496,765.671265 
	C517.399780,761.899353 518.980591,760.037659 522.572144,759.708069 
	C526.704529,759.328918 530.841064,758.967346 534.983398,758.731995 
	C538.654297,758.523438 540.080566,760.232361 540.482117,764.055054 
	C541.527283,774.005615 540.927612,784.000977 541.852051,794.406128 
z"/>
<path fill="#000000" opacity="1.000000" stroke="none" 
	d="
M169.300903,290.298584 
	C181.991226,269.990692 196.478989,251.651855 213.508255,235.437103 
	C214.205231,235.951462 214.902222,236.465820 215.599197,236.980179 
	C185.335709,269.936646 161.192688,306.927429 141.842529,348.424072 
	C140.318146,341.216187 156.454407,308.318390 169.300903,290.298584 
z"/>
<path fill="#000000" opacity="1.000000" stroke="none" 
	d="
M533.902832,103.881744 
	C537.155579,104.275169 539.948975,104.596657 542.718628,105.059723 
	C543.703003,105.224304 544.630188,105.797691 544.765076,106.947121 
	C544.929993,108.353218 543.910278,109.016029 542.840759,109.530075 
	C542.252747,109.812737 541.588745,110.076561 540.951233,110.096260 
	C531.847107,110.377617 522.742737,110.498878 513.655762,109.694023 
	C513.253601,109.658394 512.890991,109.176575 511.713196,108.329796 
	C518.979736,104.822220 526.084900,103.828468 533.902832,103.881744 
z"/>
</svg>