<svg width="231" height="239" viewBox="0 0 231 239" fill="none" xmlns="http://www.w3.org/2000/svg">
<path d="M115.059 238.118C178.605 238.118 230.118 186.605 230.118 123.059C230.118 59.5138 178.605 8 115.059 8C51.5138 8 0 59.5138 0 123.059C0 186.605 51.5138 238.118 115.059 238.118Z" fill="#EAA055"/>
<path d="M115.178 230.118C178.723 230.118 230.237 178.605 230.237 115.059C230.237 51.5138 178.723 0 115.178 0C51.6322 0 0.118408 51.5138 0.118408 115.059C0.118408 178.605 51.6322 230.118 115.178 230.118Z" fill="#F8B26A"/>
<path d="M115.178 208.545C166.808 208.545 208.663 166.69 208.663 115.059C208.663 63.4285 166.808 21.5735 115.178 21.5735C63.5471 21.5735 21.6921 63.4285 21.6921 115.059C21.6921 166.69 63.5471 208.545 115.178 208.545Z" fill="#F5E6C8"/>
<path d="M115.581 174.644C92.3415 174.644 74.1362 159.557 74.1362 140.296H90.9406C90.9406 149.291 102.225 156.891 115.581 156.891C125.573 156.891 142.49 153.396 142.49 140.296C142.49 124.499 120.074 123.699 115.581 123.699C90.9061 123.699 73 109.253 73 89.3481C73 68.8014 90.1122 55 115.581 55C138.82 55 157.025 70.0871 157.025 89.3481H140.22C140.22 80.3533 128.936 72.7536 115.581 72.7536C103.689 72.7536 89.8044 77.1 89.8044 89.3481C89.8044 100.244 102.772 105.945 115.581 105.945C142.136 105.945 159.294 119.43 159.294 140.296C159.294 160.843 141.728 174.644 115.581 174.644Z" fill="#F8B26A"/>
<path d="M105.366 43.1472H123.789V186.971H105.366V43.1472Z" fill="#F8B26A"/>
<path opacity="0.6" d="M115.4 0C115.602 0 115.801 0.0148753 116 0.0148753V237.985C115.801 237.985 115.602 238 115.4 238C51.6674 238 0 184.721 0 119C0 53.2793 51.6674 0 115.4 0V0Z" fill="#F5E169"/>
</svg>
