<svg width="64" height="64" viewBox="0 0 64 64" fill="none" xmlns="http://www.w3.org/2000/svg">
<g filter="url(#filter0_d)">
<path d="M32.0913 55.5459C47.4336 55.5459 59.8643 43.1152 59.8643 27.773C59.8643 12.4307 47.4336 0 32.0913 0C16.7491 0 4.31836 12.4307 4.31836 27.773C4.31836 43.1152 16.7491 55.5459 32.0913 55.5459ZM17.0268 27.1712L43.8046 16.8466C45.0474 16.3976 46.1329 17.1498 45.7302 19.0291L45.7325 19.0268L41.1731 40.5069C40.8352 42.0298 39.9303 42.4001 38.6643 41.6826L31.721 36.5654L28.3721 39.7917C28.0018 40.162 27.6893 40.4745 26.9718 40.4745L27.4648 33.4086L40.333 21.7833C40.893 21.2903 40.208 21.0126 39.4697 21.5032L23.5673 31.5154L16.712 29.3769C15.2239 28.9047 15.1915 27.8887 17.0268 27.1712Z" fill="url(#paint0_linear)"/>
</g>
<defs>
<filter id="filter0_d" x="0.318359" y="0" width="63.5459" height="63.5459" filterUnits="userSpaceOnUse" color-interpolation-filters="sRGB">
<feFlood flood-opacity="0" result="BackgroundImageFix"/>
<feColorMatrix in="SourceAlpha" type="matrix" values="0 0 0 0 0 0 0 0 0 0 0 0 0 0 0 0 0 0 127 0"/>
<feOffset dy="4"/>
<feGaussianBlur stdDeviation="2"/>
<feColorMatrix type="matrix" values="0 0 0 0 0 0 0 0 0 0 0 0 0 0 0 0 0 0 0.25 0"/>
<feBlend mode="normal" in2="BackgroundImageFix" result="effect1_dropShadow"/>
<feBlend mode="normal" in="SourceGraphic" in2="effect1_dropShadow" result="shape"/>
</filter>
<linearGradient id="paint0_linear" x1="4" y1="-4.69387e-07" x2="60" y2="56" gradientUnits="userSpaceOnUse">
<stop stop-color="#FF9900"/>
<stop offset="1" stop-color="#FF7235"/>
</linearGradient>
</defs>
</svg>
