<svg width="65" height="64" viewBox="0 0 65 64" fill="none" xmlns="http://www.w3.org/2000/svg">
<g filter="url(#filter0_d)">
<path d="M32.1159 0C16.5903 0 4 12.4367 4 27.773C4 43.1092 16.5903 55.5459 32.1159 55.5459C47.6414 55.5459 60.2317 43.1092 60.2317 27.773C60.2317 12.4367 47.6414 0 32.1159 0ZM44.9532 21.6544C44.9657 21.9277 44.9717 22.2024 44.9717 22.4782C44.9717 30.9018 38.4807 40.6153 26.6103 40.6157H26.6107H26.6103C22.9658 40.6157 19.5745 39.5605 16.7185 37.7522C17.2235 37.8111 17.7375 37.8403 18.2578 37.8403C21.2815 37.8403 24.0641 36.8216 26.2731 35.1116C23.4481 35.0599 21.0662 33.2169 20.2442 30.6839C20.6376 30.7585 21.0421 30.7992 21.457 30.7992C22.046 30.7992 22.6166 30.7208 23.1589 30.5746C20.206 29.9906 17.9816 27.4128 17.9816 24.3259C17.9816 24.2971 17.9816 24.2713 17.9824 24.2446C18.852 24.7222 19.8465 25.0095 20.9053 25.0417C19.1725 23.8996 18.0335 21.9472 18.0335 19.7355C18.0335 18.5676 18.3531 17.4734 18.9074 16.5313C22.0898 20.3886 26.8458 22.9253 32.2094 23.1919C32.0987 22.7249 32.0416 22.2384 32.0416 21.7383C32.0416 18.2192 34.9319 15.3642 38.4957 15.3642C40.3521 15.3642 42.0286 16.1393 43.2063 17.3784C44.6765 17.092 46.0571 16.5614 47.3042 15.8312C46.8216 17.3191 45.7988 18.5676 44.4663 19.3571C45.7718 19.2028 47.0159 18.8608 48.1721 18.3531C47.3085 19.6317 46.2132 20.7547 44.9532 21.6544Z" fill="url(#paint0_linear)"/>
</g>
<defs>
<filter id="filter0_d" x="0" y="0" width="64.2317" height="63.5459" filterUnits="userSpaceOnUse" color-interpolation-filters="sRGB">
<feFlood flood-opacity="0" result="BackgroundImageFix"/>
<feColorMatrix in="SourceAlpha" type="matrix" values="0 0 0 0 0 0 0 0 0 0 0 0 0 0 0 0 0 0 127 0"/>
<feOffset dy="4"/>
<feGaussianBlur stdDeviation="2"/>
<feColorMatrix type="matrix" values="0 0 0 0 0 0 0 0 0 0 0 0 0 0 0 0 0 0 0.25 0"/>
<feBlend mode="normal" in2="BackgroundImageFix" result="effect1_dropShadow"/>
<feBlend mode="normal" in="SourceGraphic" in2="effect1_dropShadow" result="shape"/>
</filter>
<linearGradient id="paint0_linear" x1="4" y1="0" x2="60" y2="56" gradientUnits="userSpaceOnUse">
<stop stop-color="#FF9900"/>
<stop offset="1" stop-color="#FF7235"/>
</linearGradient>
</defs>
</svg>
